<svg width="186" height="64" viewBox="0 0 186 64" fill="white" xmlns="http://www.w3.org/2000/svg">
<g clip-path="url(#clip0_514_4456)">
<path d="M36.7733 19.4556V24.6076C35.7064 23.9996 34.4616 23.6156 33.1458 23.4876C32.8257 23.4556 32.5056 23.4556 32.1855 23.4556C31.083 23.4556 30.0161 23.6476 29.0203 23.9676C28.9136 23.9996 28.7714 24.0636 28.6647 24.0956C28.2735 24.2556 27.9178 24.4156 27.5622 24.6076C27.1354 24.8316 26.7442 25.1196 26.353 25.4076V19.4236L31.4387 21.7276L36.7733 19.4556Z" fill="#A89A6F"/>
<path opacity="0.38" d="M36.7734 19.4556L31.4743 22.4956L28.7003 24.0956C28.3091 24.2556 27.9535 24.4156 27.5979 24.6076C27.1711 24.8316 26.7799 25.1196 26.3887 25.4076V19.4236L31.4743 21.7276L36.7734 19.4556Z" fill="url(#paint0_linear_514_4456)"/>
<path d="M23.7212 18.4961L31.5808 14.9761L39.1916 18.4961L31.4386 21.8881L23.7212 18.4961Z" fill="#A0976E"/>
<path opacity="0.6" d="M23.7212 18.4961L31.5808 16.2561L39.1916 18.4961L31.5808 14.9761L23.7212 18.4961Z" fill="url(#paint1_linear_514_4456)"/>
<path opacity="0.38" d="M23.7212 18.4961L31.4386 20.8961L39.1916 18.4961L31.5808 14.9761L23.7212 18.4961Z" fill="url(#paint2_linear_514_4456)"/>
<path d="M6.2238 49.3759C5.51252 49.3759 4.51672 49.1519 3.30754 48.6399C2.0628 48.1599 0.960311 47.6159 0.0356445 46.9759L0.675799 45.5679C1.77828 45.7599 2.63182 45.8879 3.23641 45.9519C3.84101 46.0159 4.48116 46.0479 5.15688 46.0479C7.53967 46.0479 9.56682 45.4079 11.2739 44.1279C12.981 42.8479 14.2613 40.9919 15.1504 38.5279C14.8659 37.8879 14.5814 37.3119 14.2968 36.8319C14.0123 36.3519 13.55 35.6159 12.9098 34.5599C12.3053 33.6639 11.7718 32.7039 11.2739 31.6479C10.776 30.5919 10.527 29.7279 10.527 28.9919C10.527 28.2559 10.776 27.6799 11.2739 27.2319C11.7718 26.7839 12.4475 26.3679 13.3366 25.9839C13.55 26.7519 14.0123 27.9359 14.688 29.5359C15.6483 31.8079 16.2884 33.4719 16.5729 34.5279C16.8575 35.5519 16.9997 36.4159 16.9997 37.1519C16.9997 39.3919 16.5374 41.4399 15.6127 43.3279C14.688 45.2159 13.4077 46.6879 11.7718 47.7439C10.0292 48.8319 8.21539 49.3759 6.2238 49.3759Z" fill="#26524E"/>
<path d="M37.2712 37.312C37.0223 35.84 36.56 34.496 35.9198 33.28C35.2797 32.032 34.5328 31.072 33.6793 30.4C32.8257 29.728 31.9366 29.376 31.0831 29.376C30.4429 29.376 29.8028 29.6 29.1626 30.016C28.5225 30.464 27.989 31.008 27.5623 31.68C27.1355 32.352 26.9221 32.992 26.9221 33.536C26.9221 34.432 27.3133 35.168 28.0957 35.712C28.8781 36.256 30.194 36.704 32.1145 37.024C32.8969 37.152 34.6395 37.248 37.2712 37.312ZM28.5225 49.376C27.4556 49.376 26.1753 49.088 24.646 48.512C23.1168 47.936 21.872 47.328 20.9829 46.624L21.6586 45.216C23.4013 45.76 25.3217 46.016 27.4556 46.016C31.5454 46.016 34.5684 44.192 36.4888 40.544C33.0747 40.416 30.6563 40.16 29.2338 39.776C27.8112 39.392 26.7443 38.784 26.0686 37.952C25.3929 37.12 25.0372 36.064 25.0372 34.752C25.0372 33.28 25.3573 31.872 25.9974 30.464C26.6376 29.056 27.4911 27.904 28.5581 27.04C29.625 26.176 30.6919 25.728 31.7588 25.728C33.0391 25.728 34.2483 26.24 35.3864 27.264C36.5244 28.288 37.4135 29.728 38.1248 31.584C38.8361 33.44 39.1917 35.296 39.1917 37.184V37.376H42.0013C42.2502 37.376 42.3925 37.504 42.3925 37.76V40.288C42.3925 40.512 42.2502 40.64 42.0013 40.64H40.3653L38.6582 40.608C38.1603 42.304 37.4135 43.808 36.3821 45.152C35.3508 46.496 34.1772 47.552 32.7902 48.288C31.5099 48.992 30.0517 49.376 28.5225 49.376Z" fill="#26524E"/>
<path d="M41.61 40.64C41.361 40.64 41.2188 40.512 41.2188 40.288V37.76C41.2188 37.504 41.361 37.376 41.61 37.376H46.7312C47.0157 37.376 47.1579 37.504 47.1579 37.76V40.288C47.1579 40.512 47.0157 40.64 46.7312 40.64H41.61Z" fill="#26524E"/>
<path d="M46.3756 40.64C46.1266 40.64 45.9844 40.512 45.9844 40.288V37.76C45.9844 37.504 46.1266 37.376 46.3756 37.376H51.4968C51.7813 37.376 51.9236 37.504 51.9236 37.76V40.288C51.9236 40.512 51.7813 40.64 51.4968 40.64H46.3756Z" fill="#26524E"/>
<path d="M51.1056 40.64C50.8566 40.64 50.7144 40.512 50.7144 40.288V37.76C50.7144 37.504 50.8566 37.376 51.1056 37.376H56.2268C56.5113 37.376 56.6536 37.504 56.6536 37.76V40.288C56.6536 40.512 56.5113 40.64 56.2268 40.64H51.1056Z" fill="#26524E"/>
<path d="M55.836 40.6402C55.5871 40.6402 55.4448 40.5122 55.4448 40.2882V37.7602C55.4448 37.5042 55.5871 37.3762 55.836 37.3762H60.9573C61.2418 37.3762 61.384 37.5042 61.384 37.7602V40.2882C61.384 40.5122 61.2418 40.6402 60.9573 40.6402H55.836Z" fill="#26524E"/>
<path d="M60.6007 40.6402C60.3517 40.6402 60.2095 40.5122 60.2095 40.2882V37.7602C60.2095 37.5042 60.3517 37.3762 60.6007 37.3762H65.7219C66.0064 37.3762 66.1487 37.5042 66.1487 37.7602V40.2882C66.1487 40.5122 66.0064 40.6402 65.7219 40.6402H60.6007Z" fill="#26524E"/>
<path d="M65.3311 40.64C65.0822 40.64 64.9399 40.512 64.9399 40.288V37.76C64.9399 37.504 65.0822 37.376 65.3311 37.376H70.4524C70.7369 37.376 70.8791 37.504 70.8791 37.76V40.288C70.8791 40.512 70.7369 40.64 70.4524 40.64H65.3311Z" fill="#26524E"/>
<path d="M70.0611 40.64C69.8122 40.64 69.6699 40.512 69.6699 40.288V37.76C69.6699 37.504 69.8122 37.376 70.0611 37.376H75.1823C75.4669 37.376 75.6091 37.504 75.6091 37.76V40.288C75.6091 40.512 75.4669 40.64 75.1823 40.64H70.0611Z" fill="#26524E"/>
<path d="M74.8267 40.64C74.5778 40.64 74.4355 40.512 74.4355 40.288V37.76C74.4355 37.504 74.5778 37.376 74.8267 37.376H79.948C80.2325 37.376 80.3747 37.504 80.3747 37.76V40.288C80.3747 40.512 80.2325 40.64 79.948 40.64H74.8267Z" fill="#26524E"/>
<path d="M79.5572 40.6402C79.3083 40.6402 79.166 40.5122 79.166 40.2882V37.7602C79.166 37.5042 79.3083 37.3762 79.5572 37.3762H84.6784C84.963 37.3762 85.1052 37.5042 85.1052 37.7602V40.2882C85.1052 40.5122 84.963 40.6402 84.6784 40.6402H79.5572Z" fill="#26524E"/>
<path d="M84.2862 40.6402C84.0373 40.6402 83.895 40.5122 83.895 40.2882V37.7602C83.895 37.5042 84.0373 37.3762 84.2862 37.3762H89.4074C89.692 37.3762 89.8342 37.5042 89.8342 37.7602V40.2882C89.8342 40.5122 89.692 40.6402 89.4074 40.6402H84.2862Z" fill="#26524E"/>
<path d="M89.0523 40.64C88.8034 40.64 88.6611 40.512 88.6611 40.288V37.76C88.6611 37.504 88.8034 37.376 89.0523 37.376H94.1736C94.4581 37.376 94.6003 37.504 94.6003 37.76V40.288C94.6003 40.512 94.4581 40.64 94.1736 40.64H89.0523Z" fill="#26524E"/>
<path d="M93.7823 40.64C93.5334 40.64 93.3911 40.512 93.3911 40.288V37.76C93.3911 37.504 93.5334 37.376 93.7823 37.376H98.9035C99.1881 37.376 99.3303 37.504 99.3303 37.76V40.288C99.3303 40.512 99.1881 40.64 98.9035 40.64H93.7823Z" fill="#26524E"/>
<path d="M98.5125 40.64C98.2636 40.64 98.1213 40.512 98.1213 40.288V37.76C98.1213 37.504 98.2636 37.376 98.5125 37.376H103.634C103.918 37.376 104.061 37.504 104.061 37.76V40.288C104.061 40.512 103.918 40.64 103.634 40.64H98.5125Z" fill="#26524E"/>
<path d="M103.279 40.6402C103.03 40.6402 102.887 40.5122 102.887 40.2882V37.7602C102.887 37.5042 103.03 37.3762 103.279 37.3762H108.4C108.684 37.3762 108.827 37.5042 108.827 37.7602V40.2882C108.827 40.5122 108.684 40.6402 108.4 40.6402H103.279Z" fill="#26524E"/>
<path d="M108.008 40.6402C107.759 40.6402 107.616 40.5122 107.616 40.2882V37.7602C107.616 37.5042 107.759 37.3762 108.008 37.3762H113.129C113.413 37.3762 113.556 37.5042 113.556 37.7602V40.2882C113.556 40.5122 113.413 40.6402 113.129 40.6402H108.008Z" fill="#26524E"/>
<path d="M112.738 40.64C112.489 40.64 112.347 40.512 112.347 40.288V37.76C112.347 37.504 112.489 37.376 112.738 37.376H117.859C118.144 37.376 118.286 37.504 118.286 37.76V40.288C118.286 40.512 118.144 40.64 117.859 40.64H112.738Z" fill="#26524E"/>
<path d="M117.504 40.64C117.255 40.64 117.112 40.512 117.112 40.288V37.76C117.112 37.504 117.255 37.376 117.504 37.376H122.625C122.909 37.376 123.052 37.504 123.052 37.76V40.288C123.052 40.512 122.909 40.64 122.625 40.64H117.504Z" fill="#26524E"/>
<path d="M122.234 40.64C121.985 40.64 121.843 40.512 121.843 40.288V37.76C121.843 37.504 121.985 37.376 122.234 37.376H127.355C127.639 37.376 127.782 37.504 127.782 37.76V40.288C127.782 40.512 127.639 40.64 127.355 40.64H122.234Z" fill="#26524E"/>
<path d="M126.964 40.6402C126.715 40.6402 126.573 40.5122 126.573 40.2882V37.7602C126.573 37.5042 126.715 37.3762 126.964 37.3762H132.085C132.37 37.3762 132.512 37.5042 132.512 37.7602V40.2882C132.512 40.5122 132.37 40.6402 132.085 40.6402H126.964Z" fill="#26524E"/>
<path d="M131.729 40.6402C131.48 40.6402 131.338 40.5122 131.338 40.2882V37.7602C131.338 37.5042 131.48 37.3762 131.729 37.3762H136.85C137.135 37.3762 137.277 37.5042 137.277 37.7602V40.2882C137.277 40.5122 137.135 40.6402 136.85 40.6402H131.729Z" fill="#26524E"/>
<path d="M158.473 21.4715C157.798 22.3995 156.766 23.4235 155.379 24.6075C153.957 23.6155 152.854 22.6875 151.965 21.8235C153.316 20.6395 154.419 19.5835 155.272 18.6875C156.339 19.7115 157.406 20.6395 158.473 21.4715ZM136.459 40.6395C136.21 40.6395 136.068 40.5115 136.068 40.2875V37.7595C136.068 37.5035 136.21 37.3755 136.459 37.3755C141.154 37.3755 144.817 37.0235 147.448 36.2875C148.373 36.0315 149.653 35.5835 151.325 34.9435C152.641 34.4315 153.814 34.1115 154.846 33.9195C153.85 33.5035 152.961 33.0555 152.178 32.5435C151.396 32.0315 150.685 31.5835 149.973 31.1675C149.298 30.7515 148.586 30.3675 147.911 30.0795C147.235 29.7915 146.453 29.6315 145.635 29.6315C145.03 29.6315 144.461 29.6635 143.999 29.7595C143.501 29.8555 143.074 29.9835 142.683 30.1435C142.292 30.3035 141.545 30.6875 140.442 31.2955C140.264 31.1355 140.087 30.8795 139.944 30.5915C139.802 30.3035 139.731 29.9515 139.731 29.6315C139.731 28.5435 140.264 27.6795 141.331 27.0395C142.398 26.3995 143.785 26.0795 145.492 26.0795C146.524 26.0795 147.555 26.2715 148.586 26.6555C149.653 27.0395 150.827 27.6155 152.107 28.4155C153.565 29.3435 154.775 30.0155 155.735 30.4635C156.695 30.9115 157.584 31.2635 158.367 31.5195C159.184 31.7435 160.038 31.9355 160.892 32.0635C161.781 32.1915 163.168 32.2555 165.053 32.2555L163.239 35.4235C161.638 35.3275 160.287 35.1995 159.185 35.0395H158.864C159.291 35.7755 159.789 36.2875 160.358 36.5755C160.927 36.8635 161.745 37.0875 162.883 37.1835C163.986 37.3115 165.871 37.3755 168.502 37.3755C168.787 37.3755 168.929 37.5035 168.929 37.7595V40.2875C168.929 40.5115 168.787 40.6395 168.502 40.6395C166.119 40.6395 164.199 40.4475 162.741 40.1275C161.283 39.8075 160.074 39.2955 159.149 38.6235C158.224 37.9515 157.442 36.9275 156.731 35.5195C156.09 35.7435 155.379 36.0315 154.597 36.4155C151.716 37.8555 149.511 38.8155 148.053 39.2955C146.595 39.7755 145.066 40.1275 143.465 40.3195C141.9 40.5435 139.553 40.6395 136.459 40.6395Z" fill="#26524E"/>
<path d="M177.18 30.8156C178.745 30.8156 180.417 30.4636 182.195 29.7596C180.808 26.2076 178.923 24.4156 176.469 24.4156C175.509 24.4156 174.726 24.7996 174.086 25.5996C173.446 26.3676 173.126 27.2636 173.126 28.2556C173.126 29.1516 173.446 29.7916 174.086 30.2076C174.726 30.5916 175.758 30.8156 177.18 30.8156ZM178.603 14.6556C177.927 15.5836 176.896 16.6076 175.509 17.7916C174.086 16.7996 172.984 15.8716 172.095 15.0076C173.446 13.8236 174.549 12.7676 175.402 11.8716C176.469 12.8956 177.536 13.8236 178.603 14.6556ZM183.44 35.0716C183.262 33.8236 183.048 32.7036 182.799 31.7436C180.559 33.3116 178.318 34.0796 176.042 34.0796C174.655 34.0796 173.517 33.5996 172.628 32.6716C171.739 31.7436 171.312 30.5276 171.312 29.0876C171.312 27.6796 171.597 26.3356 172.13 25.0236C172.664 23.7116 173.411 22.6876 174.3 21.9196C175.224 21.1516 176.185 20.7676 177.216 20.7676C178.852 20.7676 180.274 21.2796 181.555 22.3356C182.835 23.3916 183.831 24.8956 184.578 26.8156C185.324 28.7356 185.716 30.8796 185.716 33.1836C185.716 34.1116 185.147 35.5516 184.044 37.5356C182.124 38.6236 179.954 39.3916 177.572 39.9036C175.189 40.3836 172.059 40.6396 168.183 40.6396C167.898 40.6396 167.756 40.5116 167.756 40.2556V37.7596C167.756 37.4716 167.898 37.3436 168.183 37.3436C171.703 37.3436 174.62 37.1516 177.003 36.7676C179.35 36.4156 181.519 35.8396 183.44 35.0716Z" fill="#26524E"/>
<path d="M181.804 0.192139L181.875 0.76814C181.875 1.66414 181.413 2.30414 180.524 2.65614C178.248 3.61615 175.047 4.67215 170.992 5.79215L171.277 3.48815C175.367 2.33614 178.888 1.24814 181.804 0.192139Z" fill="#A89A6F"/>
<path d="M149.796 6.46405C149.796 7.32805 150.578 8.00005 152.108 8.44805C152.285 8.16005 152.392 7.84005 152.392 7.48805C152.392 6.94405 152.285 6.49605 152.036 6.14405C151.787 5.79205 151.503 5.63205 151.112 5.63205C150.792 5.63205 150.507 5.72805 150.223 5.92005C149.903 6.11205 149.796 6.27205 149.796 6.46405ZM144.924 11.8081C145.777 11.6801 146.702 11.4561 147.698 11.1041C148.693 10.7521 149.654 10.3041 150.543 9.79205C149.938 9.53605 149.405 9.21605 148.978 8.76805C148.551 8.32005 148.338 7.80805 148.338 7.20005C148.338 6.65605 148.516 6.14405 148.871 5.63205C149.227 5.12005 149.654 4.70405 150.223 4.38405C150.792 4.06405 151.325 3.90405 151.823 3.90405C152.428 3.90405 152.925 4.22405 153.317 4.83205C153.708 5.44005 153.886 6.27205 153.886 7.36005C153.886 7.80805 153.779 8.28805 153.601 8.73605C154.241 8.80005 154.882 8.83205 155.486 8.83205C155.415 9.37605 155.202 9.76005 154.81 9.98405C154.419 10.1761 153.85 10.3041 153.068 10.3041H152.712L152.321 10.2721C151.432 11.1041 150.436 11.8081 149.405 12.3521C148.373 12.8961 147.449 13.1841 146.666 13.1841C146.133 13.1841 145.706 13.0561 145.386 12.8321C145.101 12.6081 144.924 12.2561 144.924 11.8081Z" fill="#A89A6F"/>
<path d="M60.4949 55.9683C60.7083 55.9683 60.815 56.0643 60.7794 56.2243L60.7083 56.8963C60.7083 56.9923 60.6372 57.0563 60.6016 57.0883C60.5305 57.1203 60.4593 57.1203 60.3527 57.1203H57.1875V59.1363H60.0681C60.1748 59.1363 60.2815 59.1683 60.3171 59.2003C60.3527 59.2323 60.3882 59.2963 60.3882 59.3923V60.0323C60.3882 60.2243 60.2815 60.2883 60.1037 60.2883H57.223V63.3923C57.223 63.5843 57.1163 63.6803 56.9385 63.6803H55.9783C55.8716 63.6803 55.7649 63.6483 55.7293 63.6163C55.6938 63.5843 55.6582 63.4883 55.6582 63.3603V56.2243C55.6582 56.0323 55.7649 55.9363 55.9427 55.9363H60.4949V55.9683Z" fill="#A89A6F"/>
<path d="M68.1049 56.1915C68.1404 56.1275 68.176 56.0635 68.2116 56.0315C68.2471 55.9995 68.3183 55.9675 68.4249 55.9675H69.4207C69.5986 55.9675 69.7053 56.0315 69.7764 56.1595L72.8349 63.3915C72.8705 63.4875 72.8705 63.5515 72.8349 63.5835C72.7993 63.6475 72.7282 63.6795 72.6571 63.6795H71.519C71.3768 63.6795 71.3056 63.6475 71.2345 63.6155C71.1634 63.5835 71.1278 63.5195 71.0923 63.4235L70.4521 61.7915H67.3225L66.6823 63.4555C66.6467 63.5195 66.6112 63.5835 66.5756 63.6155C66.5401 63.6475 66.4689 63.6795 66.3622 63.6795H65.2953C65.1886 63.6795 65.1175 63.6475 65.1175 63.6155C65.0819 63.5515 65.0819 63.4875 65.1175 63.4235L68.1049 56.1915ZM70.0253 60.7035L69.1362 58.3355L68.8873 57.5995H68.8517L68.6028 58.3355L67.7137 60.6715H70.0253V60.7035Z" fill="#A89A6F"/>
<path d="M83.2203 63.6803C83.0781 63.6803 82.9714 63.6483 82.8647 63.6163C82.7936 63.5843 82.6869 63.4883 82.6158 63.3923L79.9484 60.2883H79.9129V63.3923C79.9129 63.5843 79.8062 63.6803 79.6284 63.6803H78.6326C78.4192 63.6803 78.3125 63.5843 78.3125 63.3923V56.1923C78.3125 56.0003 78.4192 55.9363 78.6326 55.9363H79.6284C79.7351 55.9363 79.8062 55.9683 79.8418 56.0003C79.8773 56.0323 79.9129 56.0963 79.9129 56.2243V59.3923H79.9484L82.5091 56.1603C82.5802 56.0963 82.6513 56.0323 82.6869 56.0003C82.758 55.9683 82.8291 55.9683 82.9714 55.9683H83.9316C84.0383 55.9683 84.0739 55.9683 84.1094 56.0003C84.145 56.0323 84.145 56.0643 84.145 56.0963C84.145 56.1603 84.1094 56.2243 84.0383 56.3203L81.2288 59.6803L84.4651 63.2643C84.5362 63.3283 84.5718 63.3923 84.5718 63.4243C84.5718 63.4563 84.6073 63.4883 84.6073 63.5203C84.6073 63.5523 84.6073 63.5843 84.5718 63.6163C84.5362 63.6483 84.4651 63.6483 84.394 63.6483H83.2203V63.6803Z" fill="#A89A6F"/>
<path d="M96.9118 63.4235C96.9118 63.6155 96.8051 63.7115 96.6273 63.7115H95.6315C95.4181 63.7115 95.3114 63.6155 95.3114 63.4235V60.3195H91.7906V63.4235C91.7906 63.6155 91.6839 63.7115 91.4705 63.7115H90.5103C90.2969 63.7115 90.1902 63.6155 90.1902 63.4235V56.2235C90.1902 56.1275 90.2257 56.0635 90.2969 56.0315C90.368 55.9995 90.4391 55.9675 90.5458 55.9675H91.506C91.6127 55.9675 91.6839 55.9995 91.7194 56.0315C91.7906 56.0635 91.7906 56.1275 91.7906 56.2555V59.1675H95.3114V56.2555C95.3114 56.0635 95.4181 55.9995 95.6315 55.9995H96.6273C96.734 55.9995 96.8051 56.0315 96.8407 56.0635C96.8762 56.0955 96.9118 56.1595 96.9118 56.2875V63.4235Z" fill="#A89A6F"/>
<path d="M110.391 59.7759C110.391 60.4159 110.285 60.9599 110.107 61.4719C109.929 61.9839 109.645 62.3999 109.324 62.7519C108.969 63.1039 108.578 63.3599 108.115 63.5519C107.653 63.7439 107.119 63.8399 106.586 63.8399C105.981 63.8399 105.448 63.7439 104.986 63.5519C104.523 63.3599 104.132 63.1039 103.812 62.7519C103.492 62.3999 103.243 61.9839 103.101 61.5039C102.923 61.0239 102.852 60.4799 102.852 59.8719C102.852 59.2639 102.923 58.7199 103.136 58.2079C103.314 57.7279 103.563 57.2799 103.919 56.9279C104.274 56.5759 104.666 56.2879 105.128 56.0959C105.59 55.9039 106.124 55.8079 106.728 55.8079C107.333 55.8079 107.866 55.9039 108.364 56.0959C108.827 56.2879 109.218 56.5759 109.538 56.9279C109.858 57.2799 110.071 57.6959 110.249 58.1759C110.285 58.6879 110.391 59.1999 110.391 59.7759ZM108.684 59.8079C108.684 58.8479 108.506 58.1759 108.151 57.6959C107.795 57.2159 107.297 57.0239 106.622 57.0239C106.302 57.0239 106.017 57.0879 105.768 57.2159C105.519 57.3439 105.306 57.5359 105.128 57.7599C104.95 57.9839 104.808 58.3039 104.701 58.6239C104.594 58.9759 104.559 59.3599 104.559 59.7759C104.559 60.7039 104.737 61.4079 105.092 61.8559C105.448 62.3359 105.946 62.5599 106.622 62.5599C107.226 62.5599 107.724 62.3359 108.115 61.8559C108.471 61.4079 108.684 60.7359 108.684 59.8079Z" fill="#A89A6F"/>
<path d="M123.478 59.7761C123.478 60.4161 123.372 60.9601 123.194 61.4721C123.016 61.9841 122.731 62.4001 122.411 62.7521C122.056 63.1041 121.665 63.3601 121.202 63.5521C120.74 63.7441 120.206 63.8401 119.673 63.8401C119.068 63.8401 118.535 63.7441 118.073 63.5521C117.61 63.3601 117.219 63.1041 116.899 62.7521C116.579 62.4001 116.33 61.9841 116.188 61.5041C116.01 61.0241 115.939 60.4801 115.939 59.8721C115.939 59.2641 116.01 58.7201 116.223 58.2081C116.401 57.7281 116.65 57.2801 117.006 56.9281C117.361 56.5761 117.752 56.2881 118.215 56.0961C118.677 55.9041 119.211 55.8081 119.815 55.8081C120.42 55.8081 120.953 55.9041 121.451 56.0961C121.913 56.2881 122.305 56.5761 122.625 56.9281C122.945 57.2801 123.158 57.6961 123.336 58.1761C123.407 58.6881 123.478 59.2001 123.478 59.7761ZM121.771 59.8081C121.771 58.8481 121.593 58.1761 121.238 57.6961C120.882 57.2161 120.384 57.0241 119.709 57.0241C119.388 57.0241 119.104 57.0881 118.855 57.2161C118.606 57.3441 118.393 57.5361 118.215 57.7601C118.037 57.9841 117.895 58.3041 117.788 58.6241C117.681 58.9761 117.646 59.3601 117.646 59.7761C117.646 60.7041 117.824 61.4081 118.179 61.8561C118.535 62.3361 119.033 62.5601 119.709 62.5601C120.313 62.5601 120.811 62.3361 121.202 61.8561C121.593 61.4081 121.771 60.7361 121.771 59.8081Z" fill="#A89A6F"/>
<path d="M135.427 63.3595C135.498 63.4555 135.534 63.5515 135.498 63.6155C135.498 63.6795 135.427 63.7115 135.285 63.7115H134.182C134.04 63.7115 133.969 63.6795 133.898 63.6475C133.827 63.6155 133.791 63.5515 133.72 63.4875L131.942 60.8635H130.982V63.4235C130.982 63.6155 130.875 63.7115 130.697 63.7115H129.666C129.452 63.7115 129.381 63.6155 129.381 63.4235V56.2875C129.381 56.1595 129.417 56.0635 129.452 56.0315C129.488 55.9995 129.595 55.9675 129.737 55.9675H131.586C131.871 55.9675 132.12 55.9675 132.404 55.9995C132.689 56.0315 132.938 56.0635 133.187 56.1275C133.436 56.1915 133.685 56.2555 133.898 56.3835C134.111 56.4795 134.325 56.6395 134.467 56.7995C134.68 57.0235 134.823 57.2475 134.929 57.5035C135.036 57.7595 135.072 58.0475 135.072 58.3675C135.072 58.8795 134.929 59.3275 134.645 59.7115C134.36 60.0955 133.969 60.3835 133.471 60.5755L135.427 63.3595ZM133.4 58.3675C133.4 57.8875 133.222 57.5355 132.902 57.3435C132.582 57.1515 132.12 57.0555 131.586 57.0555H130.982V59.7755H131.764C132.262 59.7755 132.653 59.6475 132.973 59.4235C133.258 59.1675 133.4 58.8155 133.4 58.3675Z" fill="#A89A6F"/>
<path d="M23.7211 33.504C23.7211 35.552 23.7211 37.6 23.7211 39.648C23.7211 39.776 23.7567 39.936 23.6856 40.064C23.6145 40.192 23.5078 40.352 23.4011 40.352C23.2944 40.352 23.1166 40.224 23.0454 40.128C22.9743 40.032 23.0099 39.872 23.0099 39.712C23.0099 35.584 23.0099 31.456 23.0099 27.328V27.296C23.0454 27.04 22.9387 26.656 23.3655 26.656C23.8278 26.656 23.7211 27.04 23.7211 27.296C23.7211 29.376 23.7211 31.456 23.7211 33.504Z" fill="#A89A6F"/>
<path d="M22.263 33.3116C22.263 34.6876 22.263 36.0956 22.263 37.4716C22.263 37.5996 22.2985 37.7596 22.2274 37.8876C22.1563 38.0156 21.9785 38.1756 21.9073 38.1436C21.7651 38.1436 21.6228 37.9836 21.5161 37.8556C21.445 37.7916 21.4806 37.6636 21.4806 37.5356C21.4806 34.6876 21.4806 31.8395 21.4806 29.0235C21.4806 28.9275 21.445 28.7995 21.5161 28.7035C21.6228 28.5755 21.7651 28.4155 21.8718 28.4155C22.014 28.4155 22.1563 28.5755 22.2274 28.7355C22.2985 28.8315 22.263 28.9915 22.263 29.1515C22.263 30.5275 22.263 31.9035 22.263 33.3116Z" fill="#A89A6F"/>
<path d="M23.3299 25.0554C22.5119 25.0554 22.0496 24.6394 22.0496 23.9354C22.0496 23.2314 22.583 22.7834 23.3299 22.7834C24.0411 22.7834 24.6813 23.3274 24.6457 23.9674C24.6457 24.5754 24.1123 25.0554 23.3299 25.0554Z" fill="#A89A6F"/>
</g>
<defs>
<linearGradient id="paint0_linear_514_4456" x1="31.9213" y1="13.2317" x2="31.3927" y2="24.9823" gradientUnits="userSpaceOnUse">
<stop stop-color="white" stop-opacity="0"/>
<stop offset="0.2527" stop-color="#C3C3C3" stop-opacity="0.2527"/>
<stop offset="0.8333" stop-color="#2C2C2C" stop-opacity="0.8333"/>
<stop offset="1"/>
</linearGradient>
<linearGradient id="paint1_linear_514_4456" x1="31.8497" y1="11.4135" x2="31.5331" y2="18.4492" gradientUnits="userSpaceOnUse">
<stop stop-color="white" stop-opacity="0"/>
<stop offset="0.2527" stop-color="#C3C3C3" stop-opacity="0.2527"/>
<stop offset="0.8333" stop-color="#2C2C2C" stop-opacity="0.8333"/>
<stop offset="1"/>
</linearGradient>
<linearGradient id="paint2_linear_514_4456" x1="31.9559" y1="9.49985" x2="31.4704" y2="20.2912" gradientUnits="userSpaceOnUse">
<stop stop-color="white" stop-opacity="0"/>
<stop offset="0.2527" stop-color="#C3C3C3" stop-opacity="0.2527"/>
<stop offset="0.8333" stop-color="#2C2C2C" stop-opacity="0.8333"/>
<stop offset="1"/>
</linearGradient>
<clipPath id="clip0_514_4456">
<rect width="186" height="64" fill="white"/>
</clipPath>
</defs>
</svg>
